<svg width="1600" height="1000" viewBox="0 0 1600 1000" fill="none" xmlns="http://www.w3.org/2000/svg" role="img" aria-label="Abstrakcyjna grafika energetyczna">
  <defs>
    <linearGradient id="g1" x1="260" y1="40" x2="1280" y2="980" gradientUnits="userSpaceOnUse">
      <stop stop-color="#0B2A1F"/>
      <stop offset="1" stop-color="#1F7A53"/>
    </linearGradient>
    <radialGradient id="g2" cx="0" cy="0" r="1" gradientUnits="userSpaceOnUse" gradientTransform="translate(1240 260) rotate(135) scale(760 540)">
      <stop stop-color="#1F7A53" stop-opacity="0.28"/>
      <stop offset="1" stop-color="#1F7A53" stop-opacity="0"/>
    </radialGradient>
    <pattern id="grid" width="48" height="48" patternUnits="userSpaceOnUse">
      <path d="M48 0H0V48" fill="none" stroke="#0F1A16" stroke-opacity="0.08" stroke-width="1"/>
    </pattern>
    <filter id="soft" x="-20%" y="-20%" width="140%" height="140%">
      <feGaussianBlur stdDeviation="18"/>
    </filter>
  </defs>

  <rect width="1600" height="1000" fill="white"/>
  <rect width="1600" height="1000" fill="url(#grid)"/>

  <circle cx="1260" cy="280" r="460" fill="url(#g2)"/>
  <circle cx="420" cy="740" r="520" fill="#0B2A1F" fill-opacity="0.06"/>

  <path d="M260 740C520 560 860 520 1160 610C1340 662 1470 750 1560 840" stroke="url(#g1)" stroke-width="10" stroke-linecap="round" stroke-opacity="0.75"/>
  <path d="M240 700C520 500 900 430 1240 520C1400 564 1520 642 1600 720" stroke="#0B2A1F" stroke-width="2" stroke-linecap="round" stroke-opacity="0.22"/>

  <g filter="url(#soft)">
    <circle cx="1120" cy="640" r="26" fill="#1F7A53" fill-opacity="0.45"/>
    <circle cx="1080" cy="660" r="14" fill="#0B2A1F" fill-opacity="0.25"/>
    <circle cx="1180" cy="600" r="18" fill="#0B2A1F" fill-opacity="0.18"/>
  </g>

  <g>
    <path d="M980 200H1320" stroke="#0F1A16" stroke-opacity="0.14" stroke-width="2"/>
    <path d="M980 240H1400" stroke="#0F1A16" stroke-opacity="0.10" stroke-width="2"/>
    <path d="M980 280H1280" stroke="#0F1A16" stroke-opacity="0.08" stroke-width="2"/>
  </g>
</svg>

