<svg width="1110" height="157" viewBox="0 0 1110 157" fill="none" xmlns="http://www.w3.org/2000/svg">
<path d="M111.39 36.868H139.91V45.548H120.38V55.902H137.306V64.582H120.38V82.5H111.39V36.868ZM154.368 83.802C151.929 83.802 149.883 83.058 148.23 81.57C146.577 80.0407 145.709 78.0773 145.626 75.68V55.406H154.306V72.456C154.389 73.6547 154.699 74.626 155.236 75.37C155.773 76.0727 156.683 76.424 157.964 76.424C159.245 76.424 160.341 75.99 161.25 75.122C162.201 74.254 162.924 73.076 163.42 71.588C163.957 70.0587 164.226 68.3433 164.226 66.442V55.406H172.906V82.5H165.032L164.35 77.54L164.474 78.098C163.854 79.214 163.069 80.206 162.118 81.074C161.167 81.942 160.031 82.6033 158.708 83.058C157.427 83.554 155.98 83.802 154.368 83.802ZM189.707 55.406L190.389 60.242L190.265 59.808C191.216 58.1133 192.559 56.7493 194.295 55.716C196.031 54.6413 198.16 54.104 200.681 54.104C203.244 54.104 205.372 54.8687 207.067 56.398C208.803 57.886 209.692 59.8287 209.733 62.226V82.5H201.053V65.45C201.012 64.2513 200.681 63.3007 200.061 62.598C199.482 61.854 198.49 61.482 197.085 61.482C195.762 61.482 194.605 61.916 193.613 62.784C192.621 63.652 191.856 64.83 191.319 66.318C190.782 67.806 190.513 69.5213 190.513 71.464V82.5H181.833V55.406H189.707ZM229.682 83.244C227.16 83.244 224.908 82.6653 222.924 81.508C220.94 80.3093 219.369 78.594 218.212 76.362C217.096 74.13 216.538 71.4847 216.538 68.426C216.538 65.3673 217.158 62.7633 218.398 60.614C219.638 58.4647 221.332 56.832 223.482 55.716C225.631 54.6 228.07 54.042 230.798 54.042C232.534 54.042 234.187 54.3107 235.758 54.848C237.37 55.3853 238.713 56.212 239.788 57.328V60.056V33.582H248.406V82.5H239.726V77.23L240.408 79.09C239.002 80.2473 237.432 81.2393 235.696 82.066C233.96 82.8513 231.955 83.244 229.682 83.244ZM232.534 75.928C233.691 75.928 234.704 75.7833 235.572 75.494C236.481 75.1633 237.266 74.7087 237.928 74.13C238.63 73.51 239.23 72.7453 239.726 71.836V65.202C239.395 64.2927 238.878 63.528 238.176 62.908C237.514 62.2467 236.688 61.7507 235.696 61.42C234.745 61.048 233.691 60.862 232.534 60.862C231.252 60.862 230.054 61.1927 228.938 61.854C227.863 62.474 226.995 63.342 226.334 64.458C225.672 65.574 225.342 66.8553 225.342 68.302C225.342 69.7487 225.672 71.0507 226.334 72.208C226.995 73.3653 227.863 74.2747 228.938 74.936C230.054 75.5973 231.252 75.928 232.534 75.928ZM268.743 83.244C266.222 83.244 263.928 82.748 261.861 81.756C259.836 80.7227 258.224 79.152 257.025 77.044C255.826 74.936 255.227 72.2493 255.227 68.984C255.227 65.9253 255.847 63.28 257.087 61.048C258.327 58.816 259.96 57.1007 261.985 55.902C264.01 54.662 266.16 54.042 268.433 54.042C271.12 54.042 273.145 54.4967 274.509 55.406C275.914 56.274 277.072 57.2453 277.981 58.32L277.609 59.374L278.415 55.406H286.475V82.5H277.795V76.61L278.477 78.47C278.394 78.47 278.146 78.718 277.733 79.214C277.32 79.6687 276.7 80.2267 275.873 80.888C275.088 81.508 274.096 82.0453 272.897 82.5C271.74 82.996 270.355 83.244 268.743 83.244ZM271.223 76.176C272.256 76.176 273.186 76.0313 274.013 75.742C274.84 75.4113 275.563 74.9567 276.183 74.378C276.803 73.758 277.34 72.9933 277.795 72.084V65.45C277.464 64.5407 276.968 63.776 276.307 63.156C275.646 62.4947 274.86 61.9987 273.951 61.668C273.042 61.296 272.029 61.11 270.913 61.11C269.673 61.11 268.516 61.4407 267.441 62.102C266.408 62.722 265.581 63.59 264.961 64.706C264.341 65.822 264.031 67.1033 264.031 68.55C264.031 69.9967 264.362 71.2987 265.023 72.456C265.684 73.6133 266.552 74.5227 267.627 75.184C268.743 75.8453 269.942 76.176 271.223 76.176ZM318.421 80.082C317.222 81.0327 315.714 81.7973 313.895 82.376C312.118 82.9547 310.361 83.244 308.625 83.244C305.525 83.244 302.818 82.686 300.503 81.57C298.23 80.4127 296.452 78.78 295.171 76.672C293.931 74.5227 293.311 71.9393 293.311 68.922C293.311 65.9047 293.993 63.342 295.357 61.234C296.721 59.0847 298.498 57.452 300.689 56.336C302.921 55.22 305.256 54.662 307.695 54.662C310.134 54.662 312.242 54.9927 314.019 55.654C315.838 56.3153 317.388 57.1833 318.669 58.258L314.453 63.838C313.874 63.3833 313.068 62.9287 312.035 62.474C311.043 61.978 309.865 61.73 308.501 61.73C307.302 61.73 306.207 62.04 305.215 62.66C304.223 63.28 303.438 64.1273 302.859 65.202C302.28 66.2767 301.991 67.5167 301.991 68.922C301.991 70.2447 302.301 71.464 302.921 72.58C303.541 73.696 304.388 74.5847 305.463 75.246C306.579 75.866 307.881 76.176 309.369 76.176C310.32 76.176 311.188 76.052 311.973 75.804C312.8 75.5147 313.502 75.122 314.081 74.626L318.421 80.082ZM326.885 95.582L321.863 90.188C323.103 89.2787 324.054 88.1627 324.715 86.84C325.418 85.5173 325.769 83.9053 325.769 82.004V55.406H334.449V82.5C334.449 85.724 333.87 88.39 332.713 90.498C331.556 92.6473 329.613 94.342 326.885 95.582ZM325.459 45.796C325.459 44.5147 325.955 43.4607 326.947 42.634C327.98 41.8073 329.076 41.394 330.233 41.394C331.39 41.394 332.444 41.8073 333.395 42.634C334.387 43.4607 334.883 44.5147 334.883 45.796C334.883 47.0773 334.387 48.1313 333.395 48.958C332.444 49.7433 331.39 50.136 330.233 50.136C329.076 50.136 327.98 49.7433 326.947 48.958C325.955 48.1313 325.459 47.0773 325.459 45.796ZM354.78 83.244C352.259 83.244 349.965 82.748 347.898 81.756C345.873 80.7227 344.261 79.152 343.062 77.044C341.864 74.936 341.264 72.2493 341.264 68.984C341.264 65.9253 341.884 63.28 343.124 61.048C344.364 58.816 345.997 57.1007 348.022 55.902C350.048 54.662 352.197 54.042 354.47 54.042C357.157 54.042 359.182 54.4967 360.546 55.406C361.952 56.274 363.109 57.2453 364.018 58.32L363.646 59.374L364.452 55.406H372.512V82.5H363.832V76.61L364.514 78.47C364.432 78.47 364.184 78.718 363.77 79.214C363.357 79.6687 362.737 80.2267 361.91 80.888C361.125 81.508 360.133 82.0453 358.934 82.5C357.777 82.996 356.392 83.244 354.78 83.244ZM357.26 76.176C358.294 76.176 359.224 76.0313 360.05 75.742C360.877 75.4113 361.6 74.9567 362.22 74.378C362.84 73.758 363.378 72.9933 363.832 72.084V65.45C363.502 64.5407 363.006 63.776 362.344 63.156C361.683 62.4947 360.898 61.9987 359.988 61.668C359.079 61.296 358.066 61.11 356.95 61.11C355.71 61.11 354.553 61.4407 353.478 62.102C352.445 62.722 351.618 63.59 350.998 64.706C350.378 65.822 350.068 67.1033 350.068 68.55C350.068 69.9967 350.399 71.2987 351.06 72.456C351.722 73.6133 352.59 74.5227 353.664 75.184C354.78 75.8453 355.979 76.176 357.26 76.176ZM401.618 55.406H410.298V82.5H401.618V55.406ZM401.432 45.796C401.432 44.5147 401.928 43.4607 402.92 42.634C403.954 41.8073 405.049 41.394 406.206 41.394C407.364 41.394 408.418 41.8073 409.368 42.634C410.36 43.4607 410.856 44.5147 410.856 45.796C410.856 47.0773 410.36 48.1313 409.368 48.958C408.418 49.7433 407.364 50.136 406.206 50.136C405.049 50.136 403.954 49.7433 402.92 48.958C401.928 48.1313 401.432 47.0773 401.432 45.796ZM427.111 55.406L427.793 60.18L427.669 59.808C428.744 57.9893 430.087 56.584 431.699 55.592C433.311 54.5587 435.254 54.042 437.527 54.042C439.015 54.042 440.317 54.2487 441.433 54.662C442.591 55.0753 443.562 55.6953 444.347 56.522C445.133 57.3073 445.67 58.3407 445.959 59.622L445.649 59.684C446.807 57.9893 448.191 56.6253 449.803 55.592C451.457 54.5587 453.172 54.042 454.949 54.042C457.636 54.042 459.765 54.8067 461.335 56.336C462.947 57.824 463.774 59.7667 463.815 62.164V82.5H455.197V65.76C455.156 64.5613 454.97 63.59 454.639 62.846C454.309 62.0607 453.544 61.6267 452.345 61.544C450.94 61.544 449.741 62.04 448.749 63.032C447.799 63.9827 447.075 65.2227 446.579 66.752C446.125 68.24 445.897 69.79 445.897 71.402V82.5H437.217V65.76C437.176 64.5613 436.949 63.59 436.535 62.846C436.163 62.0607 435.378 61.6267 434.179 61.544C432.815 61.544 431.658 62.04 430.707 63.032C429.798 63.9827 429.095 65.202 428.599 66.69C428.145 68.178 427.917 69.7073 427.917 71.278V82.5H419.237V55.406H427.111ZM469.227 78.036C469.227 76.7547 469.682 75.68 470.591 74.812C471.542 73.944 472.575 73.51 473.691 73.51C474.724 73.51 475.696 73.944 476.605 74.812C477.556 75.68 478.031 76.7547 478.031 78.036C478.031 79.4 477.556 80.4953 476.605 81.322C475.696 82.1073 474.724 82.5 473.691 82.5C472.575 82.5 471.542 82.1073 470.591 81.322C469.682 80.4953 469.227 79.4 469.227 78.036ZM518.025 72.89C518.025 76.858 517.24 80.2473 515.669 83.058C514.099 85.8687 511.908 88.018 509.097 89.506C506.328 91.0353 503.104 91.862 499.425 91.986V83.244C502.236 83.0787 504.53 82.2107 506.307 80.64C508.085 79.0693 508.973 76.424 508.973 72.704V36.868H518.025V72.89ZM539.811 83.244C537.29 83.244 534.996 82.748 532.929 81.756C530.904 80.7227 529.292 79.152 528.093 77.044C526.895 74.936 526.295 72.2493 526.295 68.984C526.295 65.9253 526.915 63.28 528.155 61.048C529.395 58.816 531.028 57.1007 533.053 55.902C535.079 54.662 537.228 54.042 539.501 54.042C542.188 54.042 544.213 54.4967 545.577 55.406C546.983 56.274 548.14 57.2453 549.049 58.32L548.677 59.374L549.483 55.406H557.543V82.5H548.863V76.61L549.545 78.47C549.463 78.47 549.215 78.718 548.801 79.214C548.388 79.6687 547.768 80.2267 546.941 80.888C546.156 81.508 545.164 82.0453 543.965 82.5C542.808 82.996 541.423 83.244 539.811 83.244ZM542.291 76.176C543.325 76.176 544.255 76.0313 545.081 75.742C545.908 75.4113 546.631 74.9567 547.251 74.378C547.871 73.758 548.409 72.9933 548.863 72.084V65.45C548.533 64.5407 548.037 63.776 547.375 63.156C546.714 62.4947 545.929 61.9987 545.019 61.668C544.11 61.296 543.097 61.11 541.981 61.11C540.741 61.11 539.584 61.4407 538.509 62.102C537.476 62.722 536.649 63.59 536.029 64.706C535.409 65.822 535.099 67.1033 535.099 68.55C535.099 69.9967 535.43 71.2987 536.091 72.456C536.753 73.6133 537.621 74.5227 538.695 75.184C539.811 75.8453 541.01 76.176 542.291 76.176ZM574.361 55.406L575.043 60.242L574.919 59.808C575.87 58.1133 577.213 56.7493 578.949 55.716C580.685 54.6413 582.814 54.104 585.335 54.104C587.898 54.104 590.027 54.8687 591.721 56.398C593.457 57.886 594.346 59.8287 594.387 62.226V82.5H585.707V65.45C585.666 64.2513 585.335 63.3007 584.715 62.598C584.137 61.854 583.145 61.482 581.739 61.482C580.417 61.482 579.259 61.916 578.267 62.784C577.275 63.652 576.511 64.83 575.973 66.318C575.436 67.806 575.167 69.5213 575.167 71.464V82.5H566.487V55.406H574.361ZM614.708 83.244C612.187 83.244 609.893 82.748 607.826 81.756C605.801 80.7227 604.189 79.152 602.99 77.044C601.791 74.936 601.192 72.2493 601.192 68.984C601.192 65.9253 601.812 63.28 603.052 61.048C604.292 58.816 605.925 57.1007 607.95 55.902C609.975 54.662 612.125 54.042 614.398 54.042C617.085 54.042 619.11 54.4967 620.474 55.406C621.879 56.274 623.037 57.2453 623.946 58.32L623.574 59.374L624.38 55.406H632.44V82.5H623.76V76.61L624.442 78.47C624.359 78.47 624.111 78.718 623.698 79.214C623.285 79.6687 622.665 80.2267 621.838 80.888C621.053 81.508 620.061 82.0453 618.862 82.5C617.705 82.996 616.32 83.244 614.708 83.244ZM617.188 76.176C618.221 76.176 619.151 76.0313 619.978 75.742C620.805 75.4113 621.528 74.9567 622.148 74.378C622.768 73.758 623.305 72.9933 623.76 72.084V65.45C623.429 64.5407 622.933 63.776 622.272 63.156C621.611 62.4947 620.825 61.9987 619.916 61.668C619.007 61.296 617.994 61.11 616.878 61.11C615.638 61.11 614.481 61.4407 613.406 62.102C612.373 62.722 611.546 63.59 610.926 64.706C610.306 65.822 609.996 67.1033 609.996 68.55C609.996 69.9967 610.327 71.2987 610.988 72.456C611.649 73.6133 612.517 74.5227 613.592 75.184C614.708 75.8453 615.907 76.176 617.188 76.176ZM697.196 78.718C696.7 79.1313 695.77 79.6893 694.406 80.392C693.083 81.0947 691.451 81.7147 689.508 82.252C687.565 82.7893 685.416 83.0373 683.06 82.996C679.464 82.9133 676.24 82.2727 673.388 81.074C670.577 79.834 668.18 78.16 666.196 76.052C664.253 73.944 662.765 71.526 661.732 68.798C660.699 66.07 660.182 63.156 660.182 60.056C660.182 56.584 660.699 53.4013 661.732 50.508C662.807 47.6147 664.315 45.114 666.258 43.006C668.242 40.898 670.598 39.2653 673.326 38.108C676.054 36.9507 679.071 36.372 682.378 36.372C685.437 36.372 688.144 36.7853 690.5 37.612C692.856 38.4387 694.778 39.3273 696.266 40.278L692.732 48.772C691.699 47.9867 690.314 47.1807 688.578 46.354C686.883 45.486 684.92 45.052 682.688 45.052C680.952 45.052 679.278 45.424 677.666 46.168C676.095 46.8707 674.69 47.8833 673.45 49.206C672.251 50.5287 671.301 52.0787 670.598 53.856C669.895 55.592 669.544 57.4933 669.544 59.56C669.544 61.7507 669.854 63.7553 670.474 65.574C671.135 67.3927 672.065 68.9633 673.264 70.286C674.463 71.5673 675.889 72.5593 677.542 73.262C679.237 73.9647 681.138 74.316 683.246 74.316C685.685 74.316 687.772 73.9233 689.508 73.138C691.244 72.3527 692.567 71.526 693.476 70.658L697.196 78.718ZM708.993 62.474C707.505 62.474 706.203 61.9367 705.087 60.862C703.971 59.7873 703.413 58.3407 703.413 56.522V52.802H709.923V53.67C709.923 54.538 710.067 55.0547 710.357 55.22C710.687 55.344 711.245 55.406 712.031 55.406H729.205L714.201 77.23L712.589 75.432H729.019V82.5H701.553L716.991 59.994L718.293 62.474H708.993ZM735.061 68.612C735.061 65.8427 735.702 63.3627 736.983 61.172C738.306 58.9813 740.145 57.266 742.501 56.026C744.857 54.7447 747.564 54.104 750.623 54.104C753.723 54.104 756.41 54.7447 758.683 56.026C760.956 57.266 762.692 58.9813 763.891 61.172C765.131 63.3627 765.751 65.8427 765.751 68.612C765.751 71.3813 765.131 73.882 763.891 76.114C762.692 78.3047 760.956 80.0407 758.683 81.322C756.41 82.6033 753.682 83.244 750.499 83.244C747.523 83.244 744.857 82.6653 742.501 81.508C740.186 80.3507 738.368 78.6767 737.045 76.486C735.722 74.2953 735.061 71.6707 735.061 68.612ZM743.803 68.674C743.803 70.0793 744.092 71.3607 744.671 72.518C745.25 73.634 746.035 74.5227 747.027 75.184C748.019 75.8453 749.135 76.176 750.375 76.176C751.739 76.176 752.917 75.8453 753.909 75.184C754.901 74.5227 755.666 73.634 756.203 72.518C756.74 71.3607 757.009 70.0793 757.009 68.674C757.009 67.2273 756.74 65.946 756.203 64.83C755.666 63.714 754.901 62.8253 753.909 62.164C752.917 61.5027 751.739 61.172 750.375 61.172C749.135 61.172 748.019 61.5027 747.027 62.164C746.035 62.8253 745.25 63.714 744.671 64.83C744.092 65.946 743.803 67.2273 743.803 68.674ZM795.591 80.082C794.392 81.0327 792.884 81.7973 791.065 82.376C789.288 82.9547 787.531 83.244 785.795 83.244C782.695 83.244 779.988 82.686 777.673 81.57C775.4 80.4127 773.622 78.78 772.341 76.672C771.101 74.5227 770.481 71.9393 770.481 68.922C770.481 65.9047 771.163 63.342 772.527 61.234C773.891 59.0847 775.668 57.452 777.859 56.336C780.091 55.22 782.426 54.662 784.865 54.662C787.304 54.662 789.412 54.9927 791.189 55.654C793.008 56.3153 794.558 57.1833 795.839 58.258L791.623 63.838C791.044 63.3833 790.238 62.9287 789.205 62.474C788.213 61.978 787.035 61.73 785.671 61.73C784.472 61.73 783.377 62.04 782.385 62.66C781.393 63.28 780.608 64.1273 780.029 65.202C779.45 66.2767 779.161 67.5167 779.161 68.922C779.161 70.2447 779.471 71.464 780.091 72.58C780.711 73.696 781.558 74.5847 782.633 75.246C783.749 75.866 785.051 76.176 786.539 76.176C787.49 76.176 788.358 76.052 789.143 75.804C789.97 75.5147 790.672 75.122 791.251 74.626L795.591 80.082ZM802.257 82.5V33.582H810.751V60.862L810.689 59.808C811.64 58.1133 812.983 56.7493 814.719 55.716C816.455 54.6413 818.584 54.104 821.105 54.104C823.668 54.104 825.796 54.8687 827.491 56.398C829.227 57.886 830.116 59.8287 830.157 62.226V82.5H821.477V65.45C821.436 64.2513 821.105 63.3007 820.485 62.598C819.906 61.854 818.914 61.482 817.509 61.482C816.186 61.482 815.029 61.916 814.037 62.784C813.045 63.652 812.28 64.83 811.743 66.318C811.206 67.806 810.937 69.5213 810.937 71.464V82.5H802.257ZM846.881 55.406L847.687 62.846L847.501 61.73C848.287 60.118 849.361 58.754 850.725 57.638C852.089 56.4807 853.433 55.592 854.755 54.972C856.119 54.352 857.153 54.042 857.855 54.042L857.421 62.722C855.396 62.474 853.66 62.8047 852.213 63.714C850.767 64.6233 849.651 65.822 848.865 67.31C848.08 68.798 847.687 70.3273 847.687 71.898V82.5H839.069V55.406H846.881ZM874.999 83.244C872.478 83.244 870.184 82.748 868.117 81.756C866.092 80.7227 864.48 79.152 863.281 77.044C862.082 74.936 861.483 72.2493 861.483 68.984C861.483 65.9253 862.103 63.28 863.343 61.048C864.583 58.816 866.216 57.1007 868.241 55.902C870.266 54.662 872.416 54.042 874.689 54.042C877.376 54.042 879.401 54.4967 880.765 55.406C882.17 56.274 883.328 57.2453 884.237 58.32L883.865 59.374L884.671 55.406H892.731V82.5H884.051V76.61L884.733 78.47C884.65 78.47 884.402 78.718 883.989 79.214C883.576 79.6687 882.956 80.2267 882.129 80.888C881.344 81.508 880.352 82.0453 879.153 82.5C877.996 82.996 876.611 83.244 874.999 83.244ZM877.479 76.176C878.512 76.176 879.442 76.0313 880.269 75.742C881.096 75.4113 881.819 74.9567 882.439 74.378C883.059 73.758 883.596 72.9933 884.051 72.084V65.45C883.72 64.5407 883.224 63.776 882.563 63.156C881.902 62.4947 881.116 61.9987 880.207 61.668C879.298 61.296 878.285 61.11 877.169 61.11C875.929 61.11 874.772 61.4407 873.697 62.102C872.664 62.722 871.837 63.59 871.217 64.706C870.597 65.822 870.287 67.1033 870.287 68.55C870.287 69.9967 870.618 71.2987 871.279 72.456C871.94 73.6133 872.808 74.5227 873.883 75.184C874.999 75.8453 876.198 76.176 877.479 76.176ZM901.675 33.582H910.355V82.5H901.675V33.582ZM928.098 83.058C925.866 83.058 923.779 82.6653 921.836 81.88C919.935 81.0947 918.323 79.9993 917 78.594L920.596 73.82C921.919 75.0187 923.138 75.8867 924.254 76.424C925.411 76.92 926.445 77.168 927.354 77.168C928.057 77.168 928.677 77.106 929.214 76.982C929.793 76.8167 930.247 76.5893 930.578 76.3C930.909 75.9693 931.074 75.556 931.074 75.06C931.074 74.3573 930.785 73.7993 930.206 73.386C929.669 72.9727 928.966 72.642 928.098 72.394C927.23 72.1047 926.3 71.8153 925.308 71.526C922.828 70.7407 921.03 69.604 919.914 68.116C918.839 66.5867 918.302 64.9333 918.302 63.156C918.302 61.792 918.653 60.428 919.356 59.064C920.1 57.6587 921.257 56.5013 922.828 55.592C924.44 54.6413 926.507 54.166 929.028 54.166C931.301 54.166 933.223 54.3933 934.794 54.848C936.365 55.3027 937.853 56.0467 939.258 57.08L935.972 62.164C935.187 61.544 934.298 61.0273 933.306 60.614C932.355 60.1593 931.467 59.9113 930.64 59.87C929.896 59.8287 929.255 59.9113 928.718 60.118C928.222 60.3247 927.829 60.5933 927.54 60.924C927.251 61.2547 927.106 61.606 927.106 61.978C927.065 62.7633 927.354 63.3833 927.974 63.838C928.635 64.2927 929.462 64.644 930.454 64.892C931.446 65.14 932.417 65.4293 933.368 65.76C934.691 66.1733 935.827 66.7313 936.778 67.434C937.729 68.1367 938.452 68.984 938.948 69.976C939.485 70.9267 939.754 72.084 939.754 73.448C939.754 75.1013 939.32 76.672 938.452 78.16C937.625 79.6067 936.344 80.7847 934.608 81.694C932.913 82.6033 930.743 83.058 928.098 83.058ZM947.025 82.5V33.582H955.705V82.5H947.025ZM962.587 64.086L974.863 82.5H964.757L956.883 69.046L962.587 64.086ZM953.101 74.998L952.233 66.752L968.601 54.724L973.871 59.374L953.101 74.998ZM980.87 55.406H989.55V82.5H980.87V55.406ZM980.684 45.796C980.684 44.5147 981.18 43.4607 982.172 42.634C983.206 41.8073 984.301 41.394 985.458 41.394C986.616 41.394 987.67 41.8073 988.62 42.634C989.612 43.4607 990.108 44.5147 990.108 45.796C990.108 47.0773 989.612 48.1313 988.62 48.958C987.67 49.7433 986.616 50.136 985.458 50.136C984.301 50.136 983.206 49.7433 982.172 48.958C981.18 48.1313 980.684 47.0773 980.684 45.796ZM1011.82 83.244C1008.51 83.244 1005.7 82.624 1003.39 81.384C1001.11 80.144 999.378 78.4287 998.179 76.238C996.981 74.0473 996.381 71.526 996.381 68.674C996.381 65.946 997.084 63.4867 998.489 61.296C999.895 59.1053 1001.78 57.3693 1004.13 56.088C1006.49 54.7653 1009.11 54.104 1012.01 54.104C1015.89 54.104 1019.07 55.2407 1021.55 57.514C1024.07 59.746 1025.71 62.9907 1026.45 67.248L1005.37 73.944L1003.45 69.232L1018.7 64.086L1016.9 64.892C1016.57 63.8173 1015.97 62.8873 1015.11 62.102C1014.28 61.2753 1013.02 60.862 1011.32 60.862C1010.04 60.862 1008.91 61.172 1007.91 61.792C1006.96 62.3707 1006.22 63.218 1005.68 64.334C1005.19 65.4087 1004.94 66.69 1004.94 68.178C1004.94 69.8727 1005.25 71.2987 1005.87 72.456C1006.49 73.572 1007.33 74.4193 1008.41 74.998C1009.48 75.5767 1010.68 75.866 1012.01 75.866C1012.96 75.866 1013.87 75.7007 1014.73 75.37C1015.64 75.0393 1016.53 74.6053 1017.4 74.068L1021.24 80.516C1019.8 81.3427 1018.23 82.004 1016.53 82.5C1014.88 82.996 1013.31 83.244 1011.82 83.244ZM1046.77 96.14C1044.33 96.14 1042.27 95.8507 1040.57 95.272C1038.92 94.6933 1037.51 93.9907 1036.35 93.164C1035.2 92.3373 1034.16 91.552 1033.25 90.808L1038.34 84.856C1039.29 85.724 1040.38 86.5507 1041.62 87.336C1042.91 88.1627 1044.58 88.576 1046.65 88.576C1048.01 88.576 1049.27 88.328 1050.43 87.832C1051.63 87.3773 1052.58 86.6953 1053.28 85.786C1054.02 84.8767 1054.4 83.74 1054.4 82.376V76.424L1054.71 77.974C1054.05 79.3793 1052.85 80.6193 1051.11 81.694C1049.37 82.7273 1047.1 83.244 1044.29 83.244C1041.85 83.244 1039.58 82.624 1037.47 81.384C1035.4 80.1027 1033.75 78.3873 1032.51 76.238C1031.27 74.0473 1030.65 71.5673 1030.65 68.798C1030.65 65.946 1031.31 63.4247 1032.63 61.234C1033.96 59.002 1035.67 57.2453 1037.78 55.964C1039.89 54.6827 1042.12 54.042 1044.48 54.042C1046.83 54.042 1048.86 54.3933 1050.55 55.096C1052.29 55.7573 1053.59 56.584 1054.46 57.576L1054.15 58.382L1055.08 55.406H1063.08V82.5C1063.08 85.1453 1062.33 87.4807 1060.84 89.506C1059.36 91.5727 1057.37 93.1847 1054.89 94.342C1052.45 95.5407 1049.75 96.14 1046.77 96.14ZM1039.39 68.55C1039.39 69.9967 1039.72 71.2987 1040.38 72.456C1041.05 73.6133 1041.93 74.5227 1043.05 75.184C1044.21 75.8453 1045.49 76.176 1046.89 76.176C1048.09 76.176 1049.15 76.0313 1050.06 75.742C1051.01 75.4113 1051.83 74.9567 1052.54 74.378C1053.28 73.758 1053.9 72.9933 1054.4 72.084V65.45C1054.02 64.5407 1053.47 63.776 1052.72 63.156C1051.98 62.4947 1051.11 61.9987 1050.12 61.668C1049.17 61.296 1048.09 61.11 1046.89 61.11C1045.49 61.11 1044.21 61.4407 1043.05 62.102C1041.93 62.722 1041.05 63.59 1040.38 64.706C1039.72 65.822 1039.39 67.1033 1039.39 68.55ZM1069.89 68.612C1069.89 65.8427 1070.53 63.3627 1071.81 61.172C1073.13 58.9813 1074.97 57.266 1077.33 56.026C1079.68 54.7447 1082.39 54.104 1085.45 54.104C1088.55 54.104 1091.23 54.7447 1093.51 56.026C1095.78 57.266 1097.52 58.9813 1098.72 61.172C1099.96 63.3627 1100.58 65.8427 1100.58 68.612C1100.58 71.3813 1099.96 73.882 1098.72 76.114C1097.52 78.3047 1095.78 80.0407 1093.51 81.322C1091.23 82.6033 1088.51 83.244 1085.32 83.244C1082.35 83.244 1079.68 82.6653 1077.33 81.508C1075.01 80.3507 1073.19 78.6767 1071.87 76.486C1070.55 74.2953 1069.89 71.6707 1069.89 68.612ZM1078.63 68.674C1078.63 70.0793 1078.92 71.3607 1079.5 72.518C1080.07 73.634 1080.86 74.5227 1081.85 75.184C1082.84 75.8453 1083.96 76.176 1085.2 76.176C1086.56 76.176 1087.74 75.8453 1088.73 75.184C1089.73 74.5227 1090.49 73.634 1091.03 72.518C1091.56 71.3607 1091.83 70.0793 1091.83 68.674C1091.83 67.2273 1091.56 65.946 1091.03 64.83C1090.49 63.714 1089.73 62.8253 1088.73 62.164C1087.74 61.5027 1086.56 61.172 1085.2 61.172C1083.96 61.172 1082.84 61.5027 1081.85 62.164C1080.86 62.8253 1080.07 63.714 1079.5 64.83C1078.92 65.946 1078.63 67.2273 1078.63 68.674Z" fill="black"/>
<path d="M134.996 138.822C134.401 139.218 133.591 139.665 132.566 140.161C131.541 140.657 130.334 141.07 128.945 141.401C127.589 141.731 126.101 141.897 124.481 141.897C121.703 141.864 119.19 141.368 116.942 140.409C114.726 139.45 112.841 138.144 111.287 136.49C109.733 134.837 108.526 132.936 107.666 130.786C106.84 128.604 106.426 126.289 106.426 123.842C106.426 121.164 106.856 118.701 107.716 116.452C108.609 114.17 109.849 112.203 111.436 110.55C113.023 108.863 114.891 107.557 117.041 106.631C119.223 105.705 121.604 105.242 124.183 105.242C126.333 105.242 128.283 105.54 130.036 106.135C131.789 106.697 133.293 107.375 134.55 108.169L132.615 112.633C131.623 111.971 130.416 111.343 128.994 110.748C127.606 110.153 126.051 109.855 124.332 109.855C122.579 109.855 120.926 110.202 119.372 110.897C117.818 111.591 116.446 112.567 115.255 113.823C114.065 115.08 113.122 116.551 112.428 118.238C111.767 119.891 111.436 121.677 111.436 123.594C111.436 125.545 111.734 127.364 112.329 129.05C112.957 130.704 113.833 132.142 114.958 133.366C116.115 134.589 117.504 135.548 119.124 136.242C120.744 136.937 122.563 137.284 124.58 137.284C126.399 137.284 128.019 137.003 129.441 136.441C130.863 135.879 132.037 135.25 132.962 134.556L134.996 138.822ZM151.48 141.996C149.132 141.996 147.115 141.533 145.429 140.607C143.742 139.648 142.436 138.359 141.51 136.738C140.617 135.085 140.171 133.2 140.171 131.084C140.171 129.067 140.684 127.232 141.709 125.578C142.734 123.925 144.106 122.602 145.825 121.61C147.545 120.618 149.463 120.122 151.579 120.122C154.291 120.122 156.539 120.916 158.325 122.503C160.11 124.09 161.317 126.273 161.945 129.05L145.032 135.002L143.941 132.274L157.829 127.215L156.837 127.86C156.44 126.769 155.779 125.826 154.853 125.033C153.927 124.206 152.72 123.793 151.232 123.793C149.975 123.793 148.851 124.107 147.859 124.735C146.867 125.33 146.09 126.157 145.528 127.215C144.966 128.273 144.685 129.48 144.685 130.836C144.685 132.258 144.982 133.514 145.577 134.606C146.173 135.664 146.983 136.507 148.008 137.135C149.066 137.73 150.256 138.028 151.579 138.028C152.472 138.028 153.332 137.863 154.158 137.532C155.018 137.201 155.812 136.771 156.539 136.242L158.672 139.665C157.647 140.359 156.489 140.921 155.2 141.351C153.943 141.781 152.703 141.996 151.48 141.996ZM171.842 120.966L172.239 125.975L172.041 125.182C172.702 123.661 173.777 122.454 175.265 121.561C176.753 120.635 178.472 120.172 180.423 120.172C182.374 120.172 183.961 120.751 185.185 121.908C186.441 123.032 187.086 124.504 187.119 126.322V141.5H182.457V127.959C182.424 126.835 182.093 125.926 181.465 125.231C180.869 124.504 179.927 124.14 178.637 124.14C177.447 124.14 176.372 124.471 175.413 125.132C174.454 125.793 173.694 126.703 173.132 127.86C172.603 129.017 172.338 130.357 172.338 131.878V141.5H167.725V120.966H171.842ZM197.125 111.938H201.738V121.065H207.392V124.686H201.738V141.5H197.125V124.686H193.355V121.065H197.125V111.938ZM217.083 120.966L217.529 126.918L217.281 126.124C217.81 124.867 218.571 123.809 219.563 122.95C220.588 122.057 221.646 121.379 222.737 120.916C223.861 120.42 224.837 120.172 225.664 120.172L225.416 124.735C223.862 124.636 222.489 124.934 221.299 125.628C220.142 126.322 219.216 127.248 218.521 128.406C217.86 129.563 217.529 130.803 217.529 132.126V141.5H212.966V120.966H217.083ZM238.112 142.294C236.26 142.294 234.723 141.731 233.499 140.607C232.309 139.45 231.681 137.962 231.614 136.143V120.966H236.227V134.506C236.293 135.631 236.608 136.54 237.17 137.234C237.765 137.929 238.691 138.293 239.947 138.326C241.105 138.326 242.13 137.995 243.022 137.334C243.948 136.639 244.692 135.713 245.254 134.556C245.817 133.366 246.098 132.026 246.098 130.538V120.966H250.71V141.5H246.494L246.098 136.441L246.346 137.334C245.949 138.293 245.337 139.152 244.51 139.913C243.717 140.64 242.774 141.219 241.683 141.649C240.592 142.079 239.402 142.294 238.112 142.294ZM262.808 120.966L263.205 125.578L263.006 125.182C263.767 123.627 264.841 122.404 266.23 121.511C267.652 120.618 269.272 120.172 271.091 120.172C272.248 120.172 273.273 120.354 274.166 120.718C275.059 121.081 275.786 121.61 276.349 122.305C276.944 122.966 277.324 123.793 277.489 124.785L277.241 124.934C278.035 123.446 279.126 122.288 280.515 121.462C281.937 120.602 283.425 120.172 284.979 120.172C286.996 120.172 288.583 120.751 289.741 121.908C290.931 123.032 291.543 124.504 291.576 126.322V141.5H286.963V127.959C286.93 126.901 286.665 126.025 286.169 125.33C285.706 124.603 284.88 124.206 283.689 124.14C282.499 124.14 281.424 124.504 280.465 125.231C279.54 125.959 278.812 126.901 278.283 128.058C277.754 129.183 277.473 130.406 277.44 131.729V141.5H272.827V127.959C272.794 126.901 272.513 126.025 271.984 125.33C271.488 124.603 270.645 124.206 269.454 124.14C268.231 124.14 267.156 124.504 266.23 125.231C265.304 125.959 264.577 126.901 264.048 128.058C263.552 129.216 263.304 130.456 263.304 131.778V141.5H258.691V120.966H262.808ZM315.314 141.5V103.11H319.927V141.5H315.314ZM324.887 127.86L334.311 141.5H328.905L321.812 130.439L324.887 127.86ZM318.489 134.953L318.042 130.538L330.492 120.519L333.319 122.95L318.489 134.953ZM337.457 131.034C337.457 128.984 337.936 127.133 338.895 125.479C339.887 123.826 341.243 122.52 342.963 121.561C344.682 120.602 346.633 120.122 348.815 120.122C351.064 120.122 353.031 120.602 354.718 121.561C356.404 122.52 357.71 123.826 358.636 125.479C359.562 127.133 360.025 128.984 360.025 131.034C360.025 133.085 359.562 134.953 358.636 136.639C357.71 138.293 356.388 139.599 354.668 140.558C352.982 141.517 351.014 141.996 348.766 141.996C346.583 141.996 344.632 141.55 342.913 140.657C341.227 139.731 339.887 138.458 338.895 136.838C337.936 135.184 337.457 133.25 337.457 131.034ZM342.07 131.084C342.07 132.407 342.367 133.614 342.963 134.705C343.558 135.763 344.351 136.606 345.343 137.234C346.368 137.863 347.493 138.177 348.716 138.177C350.006 138.177 351.147 137.863 352.139 137.234C353.164 136.606 353.957 135.763 354.519 134.705C355.082 133.614 355.363 132.407 355.363 131.084C355.363 129.761 355.082 128.571 354.519 127.513C353.957 126.422 353.164 125.562 352.139 124.934C351.147 124.272 350.006 123.942 348.716 123.942C347.46 123.942 346.319 124.272 345.294 124.934C344.302 125.595 343.508 126.471 342.913 127.562C342.351 128.621 342.07 129.794 342.07 131.084ZM370.388 120.966L370.784 125.578L370.586 125.182C371.346 123.627 372.421 122.404 373.81 121.511C375.232 120.618 376.852 120.172 378.671 120.172C379.828 120.172 380.853 120.354 381.746 120.718C382.639 121.081 383.366 121.61 383.928 122.305C384.524 122.966 384.904 123.793 385.069 124.785L384.821 124.934C385.615 123.446 386.706 122.288 388.095 121.462C389.517 120.602 391.005 120.172 392.559 120.172C394.576 120.172 396.163 120.751 397.32 121.908C398.511 123.032 399.122 124.504 399.156 126.322V141.5H394.543V127.959C394.51 126.901 394.245 126.025 393.749 125.33C393.286 124.603 392.46 124.206 391.269 124.14C390.079 124.14 389.004 124.504 388.045 125.231C387.119 125.959 386.392 126.901 385.863 128.058C385.334 129.183 385.053 130.406 385.02 131.729V141.5H380.407V127.959C380.374 126.901 380.093 126.025 379.564 125.33C379.068 124.603 378.224 124.206 377.034 124.14C375.81 124.14 374.736 124.504 373.81 125.231C372.884 125.959 372.157 126.901 371.628 128.058C371.132 129.216 370.884 130.456 370.884 131.778V141.5H366.271V120.966H370.388ZM419.303 141.996C417.749 141.996 416.244 141.632 414.789 140.905C413.367 140.177 412.26 139.202 411.466 137.978L411.764 136.54V151.37H407.2V120.668H411.168L411.813 125.926L411.317 124.487C412.309 123.231 413.566 122.189 415.087 121.362C416.608 120.536 418.311 120.122 420.196 120.122C422.113 120.122 423.833 120.585 425.354 121.511C426.908 122.437 428.132 123.727 429.024 125.38C429.917 127.033 430.364 128.968 430.364 131.183C430.364 133.399 429.884 135.317 428.925 136.937C427.966 138.557 426.644 139.814 424.957 140.706C423.304 141.566 421.419 141.996 419.303 141.996ZM418.41 138.326C419.733 138.326 420.94 138.028 422.031 137.433C423.155 136.805 424.048 135.961 424.709 134.903C425.371 133.812 425.701 132.589 425.701 131.233C425.701 129.844 425.387 128.621 424.759 127.562C424.131 126.471 423.287 125.611 422.229 124.983C421.204 124.355 420.047 124.041 418.757 124.041C417.567 124.041 416.492 124.272 415.533 124.735C414.574 125.198 413.781 125.843 413.152 126.67C412.524 127.463 412.078 128.389 411.813 129.447V132.87C411.979 133.928 412.375 134.87 413.004 135.697C413.632 136.523 414.409 137.168 415.335 137.631C416.294 138.094 417.319 138.326 418.41 138.326ZM446.125 141.996C443.777 141.996 441.76 141.533 440.074 140.607C438.388 139.648 437.081 138.359 436.156 136.738C435.263 135.085 434.816 133.2 434.816 131.084C434.816 129.067 435.329 127.232 436.354 125.578C437.379 123.925 438.751 122.602 440.471 121.61C442.19 120.618 444.108 120.122 446.224 120.122C448.936 120.122 451.184 120.916 452.97 122.503C454.756 124.09 455.962 126.273 456.591 129.05L439.677 135.002L438.586 132.274L452.474 127.215L451.482 127.86C451.085 126.769 450.424 125.826 449.498 125.033C448.572 124.206 447.365 123.793 445.877 123.793C444.621 123.793 443.496 124.107 442.504 124.735C441.512 125.33 440.735 126.157 440.173 127.215C439.611 128.273 439.33 129.48 439.33 130.836C439.33 132.258 439.628 133.514 440.223 134.606C440.818 135.664 441.628 136.507 442.653 137.135C443.711 137.73 444.902 138.028 446.224 138.028C447.117 138.028 447.977 137.863 448.804 137.532C449.663 137.201 450.457 136.771 451.184 136.242L453.317 139.665C452.292 140.359 451.135 140.921 449.845 141.351C448.589 141.781 447.349 141.996 446.125 141.996ZM464.355 111.938H468.968V121.065H474.622V124.686H468.968V141.5H464.355V124.686H460.585V121.065H464.355V111.938ZM489.719 141.996C487.371 141.996 485.354 141.533 483.668 140.607C481.981 139.648 480.675 138.359 479.749 136.738C478.857 135.085 478.41 133.2 478.41 131.084C478.41 129.067 478.923 127.232 479.948 125.578C480.973 123.925 482.345 122.602 484.065 121.61C485.784 120.618 487.702 120.122 489.818 120.122C492.53 120.122 494.778 120.916 496.564 122.503C498.349 124.09 499.556 126.273 500.185 129.05L483.271 135.002L482.18 132.274L496.068 127.215L495.076 127.86C494.679 126.769 494.018 125.826 493.092 125.033C492.166 124.206 490.959 123.793 489.471 123.793C488.214 123.793 487.09 124.107 486.098 124.735C485.106 125.33 484.329 126.157 483.767 127.215C483.205 128.273 482.924 129.48 482.924 130.836C482.924 132.258 483.221 133.514 483.817 134.606C484.412 135.664 485.222 136.507 486.247 137.135C487.305 137.73 488.495 138.028 489.818 138.028C490.711 138.028 491.571 137.863 492.397 137.532C493.257 137.201 494.051 136.771 494.778 136.242L496.911 139.665C495.886 140.359 494.729 140.921 493.439 141.351C492.182 141.781 490.942 141.996 489.719 141.996ZM510.081 120.966L510.478 125.975L510.28 125.182C510.941 123.661 512.016 122.454 513.504 121.561C514.992 120.635 516.711 120.172 518.662 120.172C520.613 120.172 522.2 120.751 523.424 121.908C524.68 123.032 525.325 124.504 525.358 126.322V141.5H520.696V127.959C520.663 126.835 520.332 125.926 519.704 125.231C519.108 124.504 518.166 124.14 516.876 124.14C515.686 124.14 514.611 124.471 513.652 125.132C512.694 125.793 511.933 126.703 511.371 127.86C510.842 129.017 510.577 130.357 510.577 131.878V141.5H505.964V120.966H510.081ZM550.046 139.615C549.12 140.343 548.012 140.921 546.722 141.351C545.433 141.781 544.143 141.996 542.854 141.996C540.605 141.996 538.638 141.55 536.951 140.657C535.265 139.764 533.942 138.524 532.983 136.937C532.057 135.317 531.594 133.415 531.594 131.233C531.594 129.05 532.09 127.149 533.082 125.529C534.108 123.909 535.43 122.669 537.05 121.809C538.704 120.916 540.473 120.47 542.358 120.47C544.011 120.47 545.482 120.701 546.772 121.164C548.095 121.627 549.219 122.255 550.145 123.049L547.863 126.025C547.268 125.562 546.541 125.149 545.681 124.785C544.821 124.421 543.846 124.239 542.754 124.239C541.564 124.239 540.456 124.553 539.431 125.182C538.439 125.777 537.646 126.603 537.05 127.662C536.488 128.72 536.207 129.91 536.207 131.233C536.207 132.489 536.505 133.663 537.1 134.754C537.695 135.813 538.522 136.656 539.58 137.284C540.638 137.879 541.845 138.177 543.201 138.177C544.094 138.177 544.904 138.045 545.631 137.78C546.392 137.515 547.07 137.152 547.665 136.689L550.046 139.615ZM557.736 151.37L571.277 120.966H575.543L562.3 151.37H557.736ZM562.796 141.649L552.925 120.966H558.133L566.416 139.318L562.796 141.649ZM580.758 151.37L578.03 148.543C578.956 147.75 579.683 146.758 580.212 145.567C580.741 144.41 581.006 143.038 581.006 141.45V120.966H585.668V141.649C585.668 143.963 585.271 145.914 584.478 147.502C583.717 149.122 582.477 150.411 580.758 151.37ZM580.609 113.526C580.609 112.798 580.89 112.186 581.452 111.69C582.047 111.194 582.692 110.946 583.387 110.946C584.081 110.946 584.693 111.194 585.222 111.69C585.784 112.186 586.065 112.798 586.065 113.526C586.065 114.286 585.784 114.914 585.222 115.41C584.693 115.873 584.081 116.105 583.387 116.105C582.692 116.105 582.047 115.857 581.452 115.361C580.89 114.865 580.609 114.253 580.609 113.526ZM597.463 120.966L597.859 125.975L597.661 125.182C598.322 123.661 599.397 122.454 600.885 121.561C602.373 120.635 604.092 120.172 606.043 120.172C607.994 120.172 609.581 120.751 610.805 121.908C612.061 123.032 612.706 124.504 612.739 126.322V141.5H608.077V127.959C608.044 126.835 607.713 125.926 607.085 125.231C606.49 124.504 605.547 124.14 604.258 124.14C603.067 124.14 601.993 124.471 601.034 125.132C600.075 125.793 599.314 126.703 598.752 127.86C598.223 129.017 597.959 130.357 597.959 131.878V141.5H593.346V120.966H597.463ZM630.285 141.996C627.937 141.996 625.92 141.533 624.233 140.607C622.547 139.648 621.241 138.359 620.315 136.738C619.422 135.085 618.976 133.2 618.976 131.084C618.976 129.067 619.488 127.232 620.513 125.578C621.538 123.925 622.911 122.602 624.63 121.61C626.35 120.618 628.267 120.122 630.384 120.122C633.095 120.122 635.344 120.916 637.129 122.503C638.915 124.09 640.122 126.273 640.75 129.05L623.837 135.002L622.745 132.274L636.633 127.215L635.641 127.86C635.245 126.769 634.583 125.826 633.657 125.033C632.731 124.206 631.525 123.793 630.037 123.793C628.78 123.793 627.656 124.107 626.664 124.735C625.672 125.33 624.895 126.157 624.333 127.215C623.77 128.273 623.489 129.48 623.489 130.836C623.489 132.258 623.787 133.514 624.382 134.606C624.977 135.664 625.787 136.507 626.813 137.135C627.871 137.73 629.061 138.028 630.384 138.028C631.277 138.028 632.136 137.863 632.963 137.532C633.823 137.201 634.616 136.771 635.344 136.242L637.477 139.665C636.451 140.359 635.294 140.921 634.005 141.351C632.748 141.781 631.508 141.996 630.285 141.996ZM666.341 120.966L666.787 126.918L666.539 126.124C667.068 124.867 667.829 123.809 668.821 122.95C669.846 122.057 670.904 121.379 671.995 120.916C673.119 120.42 674.095 120.172 674.921 120.172L674.673 124.735C673.119 124.636 671.747 124.934 670.557 125.628C669.399 126.322 668.473 127.248 667.779 128.406C667.118 129.563 666.787 130.803 666.787 132.126V141.5H662.224V120.966H666.341ZM682.608 151.37L696.149 120.966H700.415L687.171 151.37H682.608ZM687.667 141.649L677.797 120.966H683.005L691.288 139.318L687.667 141.649ZM709.498 120.966L709.895 125.975L709.697 125.182C710.358 123.661 711.433 122.454 712.921 121.561C714.409 120.635 716.128 120.172 718.079 120.172C720.03 120.172 721.617 120.751 722.841 121.908C724.097 123.032 724.742 124.504 724.775 126.322V141.5H720.113V127.959C720.08 126.835 719.749 125.926 719.121 125.231C718.526 124.504 717.583 124.14 716.294 124.14C715.103 124.14 714.029 124.471 713.07 125.132C712.111 125.793 711.35 126.703 710.788 127.86C710.259 129.017 709.994 130.357 709.994 131.878V141.5H705.382V120.966H709.498ZM732.797 141.5V103.11H737.41V141.5H732.797ZM742.37 127.86L751.794 141.5H746.388L739.295 130.439L742.37 127.86ZM735.972 134.953L735.525 130.538L747.975 120.519L750.802 122.95L735.972 134.953ZM763.998 142.294C762.146 142.294 760.609 141.731 759.385 140.607C758.195 139.45 757.567 137.962 757.5 136.143V120.966H762.113V134.506C762.179 135.631 762.493 136.54 763.056 137.234C763.651 137.929 764.577 138.293 765.833 138.326C766.991 138.326 768.016 137.995 768.908 137.334C769.834 136.639 770.578 135.713 771.14 134.556C771.703 133.366 771.984 132.026 771.984 130.538V120.966H776.596V141.5H772.38L771.984 136.441L772.232 137.334C771.835 138.293 771.223 139.152 770.396 139.913C769.603 140.64 768.66 141.219 767.569 141.649C766.478 142.079 765.288 142.294 763.998 142.294ZM809.794 141.996C807.446 141.996 805.429 141.533 803.743 140.607C802.056 139.648 800.75 138.359 799.824 136.738C798.932 135.085 798.485 133.2 798.485 131.084C798.485 129.067 798.998 127.232 800.023 125.578C801.048 123.925 802.42 122.602 804.14 121.61C805.859 120.618 807.777 120.122 809.893 120.122C812.605 120.122 814.853 120.916 816.639 122.503C818.424 124.09 819.631 126.273 820.26 129.05L803.346 135.002L802.255 132.274L816.143 127.215L815.151 127.86C814.754 126.769 814.093 125.826 813.167 125.033C812.241 124.206 811.034 123.793 809.546 123.793C808.289 123.793 807.165 124.107 806.173 124.735C805.181 125.33 804.404 126.157 803.842 127.215C803.28 128.273 802.999 129.48 802.999 130.836C802.999 132.258 803.296 133.514 803.892 134.606C804.487 135.664 805.297 136.507 806.322 137.135C807.38 137.73 808.57 138.028 809.893 138.028C810.786 138.028 811.646 137.863 812.472 137.532C813.332 137.201 814.126 136.771 814.853 136.242L816.986 139.665C815.961 140.359 814.804 140.921 813.514 141.351C812.257 141.781 811.017 141.996 809.794 141.996ZM830.156 120.966L830.553 125.975L830.355 125.182C831.016 123.661 832.091 122.454 833.579 121.561C835.067 120.635 836.786 120.172 838.737 120.172C840.688 120.172 842.275 120.751 843.499 121.908C844.755 123.032 845.4 124.504 845.433 126.322V141.5H840.771V127.959C840.738 126.835 840.407 125.926 839.779 125.231C839.183 124.504 838.241 124.14 836.951 124.14C835.761 124.14 834.686 124.471 833.727 125.132C832.769 125.793 832.008 126.703 831.446 127.86C830.917 129.017 830.652 130.357 830.652 131.878V141.5H826.039V120.966H830.156ZM862.978 141.996C860.631 141.996 858.614 141.533 856.927 140.607C855.241 139.648 853.935 138.359 853.009 136.738C852.116 135.085 851.67 133.2 851.67 131.084C851.67 129.067 852.182 127.232 853.207 125.578C854.232 123.925 855.604 122.602 857.324 121.61C859.043 120.618 860.961 120.122 863.077 120.122C865.789 120.122 868.038 120.916 869.823 122.503C871.609 124.09 872.816 126.273 873.444 129.05L856.53 135.002L855.439 132.274L869.327 127.215L868.335 127.86C867.938 126.769 867.277 125.826 866.351 125.033C865.425 124.206 864.218 123.793 862.73 123.793C861.474 123.793 860.349 124.107 859.357 124.735C858.365 125.33 857.588 126.157 857.026 127.215C856.464 128.273 856.183 129.48 856.183 130.836C856.183 132.258 856.481 133.514 857.076 134.606C857.671 135.664 858.481 136.507 859.506 137.135C860.564 137.73 861.755 138.028 863.077 138.028C863.97 138.028 864.83 137.863 865.657 137.532C866.516 137.201 867.31 136.771 868.038 136.242L870.17 139.665C869.145 140.359 867.988 140.921 866.698 141.351C865.442 141.781 864.202 141.996 862.978 141.996ZM883.341 120.966L883.787 126.918L883.539 126.124C884.068 124.867 884.829 123.809 885.821 122.95C886.846 122.057 887.904 121.379 888.995 120.916C890.119 120.42 891.095 120.172 891.921 120.172L891.673 124.735C890.119 124.636 888.747 124.934 887.557 125.628C886.399 126.322 885.473 127.248 884.779 128.406C884.118 129.563 883.787 130.803 883.787 132.126V141.5H879.224V120.966H883.341ZM906.871 151.668C905.35 151.668 904.011 151.486 902.853 151.122C901.696 150.792 900.638 150.312 899.679 149.684C898.753 149.056 897.86 148.345 897 147.551L899.679 144.426C900.77 145.451 901.878 146.245 903.002 146.807C904.126 147.369 905.383 147.65 906.772 147.65C908.326 147.65 909.632 147.386 910.69 146.857C911.781 146.361 912.608 145.65 913.17 144.724C913.732 143.831 914.013 142.79 914.013 141.599L914.063 136.044L914.46 136.937C913.864 138.359 912.79 139.566 911.236 140.558C909.681 141.517 907.797 141.996 905.581 141.996C903.696 141.996 901.96 141.517 900.373 140.558C898.819 139.599 897.563 138.309 896.604 136.689C895.678 135.035 895.215 133.184 895.215 131.134C895.215 128.984 895.711 127.099 896.703 125.479C897.695 123.826 899.001 122.52 900.621 121.561C902.241 120.602 904.011 120.122 905.928 120.122C907.747 120.122 909.4 120.503 910.888 121.263C912.409 121.991 913.517 122.933 914.212 124.09L913.964 124.934L914.46 120.966H918.676V141.649C918.676 143.501 918.196 145.187 917.237 146.708C916.278 148.229 914.923 149.436 913.17 150.329C911.417 151.222 909.318 151.668 906.871 151.668ZM899.828 131.034C899.828 132.357 900.142 133.564 900.77 134.655C901.398 135.746 902.241 136.606 903.3 137.234C904.391 137.863 905.598 138.177 906.92 138.177C908.144 138.177 909.235 137.962 910.194 137.532C911.186 137.069 912.013 136.457 912.674 135.697C913.335 134.903 913.798 133.994 914.063 132.969V128.902C913.765 127.91 913.269 127.05 912.575 126.322C911.88 125.562 911.054 124.983 910.095 124.586C909.136 124.157 908.078 123.942 906.92 123.942C905.598 123.942 904.391 124.239 903.3 124.834C902.241 125.43 901.398 126.273 900.77 127.364C900.142 128.422 899.828 129.646 899.828 131.034ZM926.644 120.966H931.257V141.5H926.644V120.966ZM926.297 113.526C926.297 112.798 926.578 112.186 927.14 111.69C927.735 111.194 928.38 110.946 929.075 110.946C929.769 110.946 930.381 111.194 930.91 111.69C931.472 112.186 931.753 112.798 931.753 113.526C931.753 114.286 931.472 114.914 930.91 115.41C930.381 115.873 929.769 116.105 929.075 116.105C928.38 116.105 927.735 115.857 927.14 115.361C926.578 114.865 926.297 114.253 926.297 113.526ZM939.238 120.966H943.851V141.5H939.238V120.966ZM938.891 113.526C938.891 112.798 939.172 112.186 939.734 111.69C940.329 111.194 940.974 110.946 941.668 110.946C942.363 110.946 942.974 111.194 943.503 111.69C944.066 112.186 944.347 112.798 944.347 113.526C944.347 114.286 944.066 114.914 943.503 115.41C942.974 115.873 942.363 116.105 941.668 116.105C940.974 116.105 940.329 115.857 939.734 115.361C939.172 114.865 938.891 114.253 938.891 113.526ZM967.525 120.966H972.138V141.5H967.525V120.966ZM967.178 113.526C967.178 112.798 967.459 112.186 968.021 111.69C968.617 111.194 969.261 110.946 969.956 110.946C970.65 110.946 971.262 111.194 971.791 111.69C972.353 112.186 972.634 112.798 972.634 113.526C972.634 114.286 972.353 114.914 971.791 115.41C971.262 115.873 970.65 116.105 969.956 116.105C969.261 116.105 968.617 115.857 968.021 115.361C967.459 114.865 967.178 114.253 967.178 113.526ZM1007.92 141.996C1006.36 141.996 1004.86 141.632 1003.4 140.905C1001.98 140.177 1000.87 139.202 1000.08 137.978L1000.38 136.54V151.37H995.813V120.668H999.781L1000.43 125.926L999.93 124.487C1000.92 123.231 1002.18 122.189 1003.7 121.362C1005.22 120.536 1006.92 120.122 1008.81 120.122C1010.73 120.122 1012.45 120.585 1013.97 121.511C1015.52 122.437 1016.74 123.727 1017.64 125.38C1018.53 127.033 1018.98 128.968 1018.98 131.183C1018.98 133.399 1018.5 135.317 1017.54 136.937C1016.58 138.557 1015.26 139.814 1013.57 140.706C1011.92 141.566 1010.03 141.996 1007.92 141.996ZM1007.02 138.326C1008.35 138.326 1009.55 138.028 1010.64 137.433C1011.77 136.805 1012.66 135.961 1013.32 134.903C1013.98 133.812 1014.31 132.589 1014.31 131.233C1014.31 129.844 1014 128.621 1013.37 127.562C1012.74 126.471 1011.9 125.611 1010.84 124.983C1009.82 124.355 1008.66 124.041 1007.37 124.041C1006.18 124.041 1005.1 124.272 1004.15 124.735C1003.19 125.198 1002.39 125.843 1001.76 126.67C1001.14 127.463 1000.69 128.389 1000.43 129.447V132.87C1000.59 133.928 1000.99 134.87 1001.62 135.697C1002.24 136.523 1003.02 137.168 1003.95 137.631C1004.91 138.094 1005.93 138.326 1007.02 138.326ZM1033.75 141.996C1031.83 141.996 1030.08 141.583 1028.49 140.756C1026.93 139.929 1025.69 138.722 1024.77 137.135C1023.88 135.515 1023.43 133.547 1023.43 131.233C1023.43 128.951 1023.91 126.984 1024.87 125.33C1025.83 123.644 1027.1 122.354 1028.69 121.462C1030.31 120.569 1032.08 120.122 1033.99 120.122C1035.91 120.122 1037.53 120.569 1038.85 121.462C1040.18 122.321 1041.19 123.346 1041.88 124.537L1041.58 125.33L1042.03 120.966H1046.29V141.5H1041.68V136.143L1042.18 137.334C1042.05 137.664 1041.75 138.094 1041.28 138.623C1040.85 139.119 1040.26 139.632 1039.5 140.161C1038.77 140.69 1037.93 141.136 1036.97 141.5C1036.01 141.831 1034.94 141.996 1033.75 141.996ZM1034.99 138.177C1036.14 138.177 1037.18 137.962 1038.11 137.532C1039.04 137.102 1039.8 136.507 1040.39 135.746C1041.02 134.953 1041.45 134.01 1041.68 132.919V128.902C1041.42 127.91 1040.95 127.05 1040.29 126.322C1039.63 125.562 1038.84 124.983 1037.91 124.586C1036.99 124.157 1035.96 123.942 1034.84 123.942C1033.61 123.942 1032.49 124.239 1031.46 124.834C1030.44 125.43 1029.61 126.256 1028.98 127.314C1028.39 128.373 1028.09 129.613 1028.09 131.034C1028.09 132.357 1028.41 133.564 1029.03 134.655C1029.66 135.746 1030.51 136.606 1031.56 137.234C1032.62 137.863 1033.76 138.177 1034.99 138.177ZM1054.28 103.11H1058.89V141.5H1054.28V103.11ZM1066.87 120.966H1071.48V141.5H1066.87V120.966ZM1066.52 113.526C1066.52 112.798 1066.8 112.186 1067.37 111.69C1067.96 111.194 1068.61 110.946 1069.3 110.946C1070 110.946 1070.61 111.194 1071.14 111.69C1071.7 112.186 1071.98 112.798 1071.98 113.526C1071.98 114.286 1071.7 114.914 1071.14 115.41C1070.61 115.873 1070 116.105 1069.3 116.105C1068.61 116.105 1067.96 115.857 1067.37 115.361C1066.8 114.865 1066.52 114.253 1066.52 113.526ZM1092.61 120.966L1098.66 134.804L1097.77 134.903L1103.42 120.966H1107.93L1098.51 142.74L1091.91 128.654L1085.91 142.74L1076.39 120.966H1080.9L1087.3 135.449L1085.71 135.151L1090.28 124.537L1088.64 120.966H1092.61Z" fill="black"/>
<path d="M38.56 125.73C40.1616 125.73 41.46 124.432 41.46 122.83C41.46 121.228 40.1616 119.93 38.56 119.93C36.9584 119.93 35.66 121.228 35.66 122.83C35.66 124.432 36.9584 125.73 38.56 125.73Z" fill="#0D3B66"/>
<path d="M52.89 117.69C52.72 117.21 52.15 116.96 51.63 117.15L42.57 120.4C42.05 120.59 41.77 121.13 41.94 121.62C42.11 122.11 42.68 122.35 43.2 122.16L52.26 118.91C52.78 118.72 53.06 118.18 52.89 117.69Z" fill="#0D3B66"/>
<path d="M24.16 117.67C24.33 117.19 24.9 116.94 25.42 117.13L34.66 120.44C35.18 120.63 35.46 121.17 35.29 121.66C35.12 122.15 34.55 122.39 34.03 122.2L24.79 118.89C24.27 118.7 23.99 118.16 24.16 117.67Z" fill="#0D3B66"/>
<path d="M24.65 78.88C24.82 78.4 25.39 78.15 25.91 78.34L34.63 81.47C35.15 81.66 35.43 82.2 35.26 82.69C35.09 83.18 34.52 83.42 34 83.23L25.28 80.1C24.76 79.91 24.48 79.37 24.65 78.88Z" fill="#0D3B66"/>
<path d="M52.89 98.54C52.72 98.06 52.15 97.81 51.63 98L42.91 101.13C42.39 101.32 42.11 101.86 42.28 102.35C42.45 102.84 43.02 103.08 43.54 102.89L52.26 99.76C52.78 99.57 53.06 99.03 52.89 98.54Z" fill="#0D3B66"/>
<path d="M24.04 98.54C24.21 98.06 24.78 97.81 25.3 98L34.02 101.13C34.54 101.32 34.82 101.86 34.65 102.35C34.48 102.84 33.91 103.08 33.39 102.89L24.67 99.76C24.15 99.57 23.87 99.03 24.04 98.54Z" fill="#0D3B66"/>
<path d="M52.89 78.88C52.72 78.4 52.15 78.15 51.63 78.34L42.91 81.47C42.39 81.66 42.11 82.2 42.28 82.69C42.45 83.18 43.02 83.42 43.54 83.23L52.26 80.1C52.78 79.91 53.06 79.37 52.89 78.88Z" fill="#0D3B66"/>
<path d="M21 119.71C22.6016 119.71 23.9 118.412 23.9 116.81C23.9 115.208 22.6016 113.91 21 113.91C19.3984 113.91 18.1 115.208 18.1 116.81C18.1 118.412 19.3984 119.71 21 119.71Z" fill="#0D3B66"/>
<path d="M56.11 119.71C57.7116 119.71 59.01 118.412 59.01 116.81C59.01 115.208 57.7116 113.91 56.11 113.91C54.5084 113.91 53.21 115.208 53.21 116.81C53.21 118.412 54.5084 119.71 56.11 119.71Z" fill="#0D3B66"/>
<path d="M56.11 100.28C57.7116 100.28 59.01 98.9816 59.01 97.38C59.01 95.7784 57.7116 94.48 56.11 94.48C54.5084 94.48 53.21 95.7784 53.21 97.38C53.21 98.9816 54.5084 100.28 56.11 100.28Z" fill="#0D3B66"/>
<path d="M38.46 106.61C40.0616 106.61 41.36 105.312 41.36 103.71C41.36 102.108 40.0616 100.81 38.46 100.81C36.8584 100.81 35.56 102.108 35.56 103.71C35.56 105.312 36.8584 106.61 38.46 106.61Z" fill="#0D3B66"/>
<path d="M44.36 115.05C45.9616 115.05 47.26 113.752 47.26 112.15C47.26 110.548 45.9616 109.25 44.36 109.25C42.7584 109.25 41.46 110.548 41.46 112.15C41.46 113.752 42.7584 115.05 44.36 115.05Z" fill="#0D3B66"/>
<path d="M44.36 94.75C45.9616 94.75 47.26 93.4516 47.26 91.85C47.26 90.2484 45.9616 88.95 44.36 88.95C42.7584 88.95 41.46 90.2484 41.46 91.85C41.46 93.4516 42.7584 94.75 44.36 94.75Z" fill="#0D3B66"/>
<path d="M32.42 94.75C34.0216 94.75 35.32 93.4516 35.32 91.85C35.32 90.2484 34.0216 88.95 32.42 88.95C30.8184 88.95 29.52 90.2484 29.52 91.85C29.52 93.4516 30.8184 94.75 32.42 94.75Z" fill="#0D3B66"/>
<path d="M32.68 115.05C34.2816 115.05 35.58 113.752 35.58 112.15C35.58 110.548 34.2816 109.25 32.68 109.25C31.0784 109.25 29.78 110.548 29.78 112.15C29.78 113.752 31.0784 115.05 32.68 115.05Z" fill="#0D3B66"/>
<path d="M29.15 93.66C28.98 93.18 28.41 92.93 27.89 93.12L24.73 94.25C24.21 94.44 23.93 94.98 24.1 95.47C24.27 95.96 24.84 96.2 25.36 96.01L28.52 94.88C29.04 94.69 29.32 94.15 29.15 93.66Z" fill="#0D3B66"/>
<path d="M47.52 93.5C47.69 93.02 48.26 92.77 48.78 92.96L52.35 94.24C52.87 94.43 53.15 94.97 52.98 95.46C52.81 95.95 52.24 96.19 51.72 96L48.15 94.72C47.63 94.53 47.35 93.99 47.52 93.5Z" fill="#0D3B66"/>
<path d="M35.25 72.65C35.08 72.17 34.51 71.92 33.99 72.11L25.27 75.24C24.75 75.43 24.47 75.97 24.64 76.46C24.81 76.95 25.38 77.19 25.9 77L34.62 73.87C35.14 73.68 35.42 73.14 35.25 72.65Z" fill="#0D3B66"/>
<path d="M42.29 72.65C42.46 72.17 43.03 71.92 43.55 72.11L52.27 75.24C52.79 75.43 53.07 75.97 52.9 76.46C52.73 76.95 52.16 77.19 51.64 77L42.92 73.87C42.4 73.68 42.12 73.14 42.29 72.65Z" fill="#0D3B66"/>
<path d="M56.27 80.57C57.8716 80.57 59.17 79.2716 59.17 77.67C59.17 76.0684 57.8716 74.77 56.27 74.77C54.6684 74.77 53.37 76.0684 53.37 77.67C53.37 79.2716 54.6684 80.57 56.27 80.57Z" fill="#0D3B66"/>
<path d="M21 80.57C22.6016 80.57 23.9 79.2716 23.9 77.67C23.9 76.0684 22.6016 74.77 21 74.77C19.3984 74.77 18.1 76.0684 18.1 77.67C18.1 79.2716 19.3984 80.57 21 80.57Z" fill="#0D3B66"/>
<path d="M38.77 74.29C40.3716 74.29 41.67 72.9916 41.67 71.39C41.67 69.7884 40.3716 68.49 38.77 68.49C37.1684 68.49 35.87 69.7884 35.87 71.39C35.87 72.9916 37.1684 74.29 38.77 74.29Z" fill="#0D3B66"/>
<path d="M21 100.28C22.6016 100.28 23.9 98.9816 23.9 97.38C23.9 95.7784 22.6016 94.48 21 94.48C19.3984 94.48 18.1 95.7784 18.1 97.38C18.1 98.9816 19.3984 100.28 21 100.28Z" fill="#0D3B66"/>
<path d="M38.77 86.85C40.3716 86.85 41.67 85.5516 41.67 83.95C41.67 82.3484 40.3716 81.05 38.77 81.05C37.1684 81.05 35.87 82.3484 35.87 83.95C35.87 85.5516 37.1684 86.85 38.77 86.85Z" fill="#0D3B66"/>
<path d="M47.52 113.39C47.69 112.91 48.26 112.66 48.78 112.85L52.35 114.13C52.87 114.32 53.15 114.86 52.98 115.35C52.81 115.84 52.24 116.08 51.72 115.89L48.15 114.61C47.63 114.42 47.35 113.88 47.52 113.39Z" fill="#0D3B66"/>
<path d="M29.36 112.93C29.19 112.45 28.62 112.2 28.1 112.39L24.53 113.67C24.01 113.86 23.73 114.4 23.9 114.89C24.07 115.38 24.64 115.62 25.16 115.43L28.73 114.15C29.25 113.96 29.53 113.42 29.36 112.93Z" fill="#0D3B66"/>
<path d="M38.46 107.46C37.95 107.46 37.53 107.91 37.53 108.46V118.08C37.53 118.63 37.95 119.08 38.46 119.08C38.97 119.08 39.39 118.63 39.39 118.08V108.46C39.39 107.91 38.97 107.46 38.46 107.46Z" fill="#0D3B66"/>
<path d="M38.56 88.02C38.05 88.02 37.63 88.47 37.63 89.02V98.64C37.63 99.19 38.05 99.64 38.56 99.64C39.07 99.64 39.49 99.19 39.49 98.64V89.02C39.49 88.47 39.07 88.02 38.56 88.02Z" fill="#0D3B66"/>
<path d="M38.56 75.24C38.05 75.24 37.63 75.69 37.63 76.24V79.1C37.63 79.65 38.05 80.1 38.56 80.1C39.07 80.1 39.49 79.65 39.49 79.1V76.24C39.49 75.69 39.07 75.24 38.56 75.24Z" fill="#0D3B66"/>
<path d="M56.27 101.29C55.76 101.29 55.34 101.74 55.34 102.29V111.91C55.34 112.46 55.76 112.91 56.27 112.91C56.78 112.91 57.2 112.46 57.2 111.91V102.29C57.2 101.74 56.78 101.29 56.27 101.29Z" fill="#0D3B66"/>
<path d="M21.01 101.28C20.5 101.28 20.08 101.73 20.08 102.28V111.9C20.08 112.45 20.5 112.9 21.01 112.9C21.52 112.9 21.94 112.45 21.94 111.9V102.28C21.94 101.73 21.52 101.28 21.01 101.28Z" fill="#0D3B66"/>
<path d="M21.01 81.45C20.5 81.45 20.08 81.9 20.08 82.45V92.07C20.08 92.62 20.5 93.07 21.01 93.07C21.52 93.07 21.94 92.62 21.94 92.07V82.45C21.94 81.9 21.52 81.45 21.01 81.45Z" fill="#0D3B66"/>
<path d="M56.11 81.72C55.6 81.72 55.18 82.17 55.18 82.72V92.34C55.18 92.89 55.6 93.34 56.11 93.34C56.62 93.34 57.04 92.89 57.04 92.34V82.72C57.04 82.17 56.62 81.72 56.11 81.72Z" fill="#0D3B66"/>
<path d="M38.56 57.31C38.05 57.31 37.63 57.76 37.63 58.31V65.61C37.63 66.16 38.05 66.61 38.56 66.61C39.07 66.61 39.49 66.16 39.49 65.61V58.31C39.49 57.76 39.07 57.31 38.56 57.31Z" fill="black"/>
<path d="M75.44 45.67C75.17 78.63 74.91 111.59 74.64 144.55" stroke="black" stroke-width="2.5" stroke-miterlimit="10" stroke-linecap="round"/>
<path d="M2.05 45.16C1.78 78.37 1.52 111.58 1.25 144.79" stroke="black" stroke-width="2.5" stroke-miterlimit="10" stroke-linecap="round"/>
<path d="M1.39 135.3C15.8 149.71 62.94 150.1 74.63 135.3" stroke="url(#paint0_radial_3_65)" stroke-miterlimit="10"/>
<path d="M1.39 144.55C15.8 158.96 62.94 159.35 74.63 144.55" stroke="black" stroke-width="2.5" stroke-miterlimit="10"/>
<path d="M39.5784 0H37.9616C37.6404 0 37.38 0.447715 37.38 1V39.7C37.38 40.2523 37.6404 40.7 37.9616 40.7H39.5784C39.8996 40.7 40.16 40.2523 40.16 39.7V1C40.16 0.447715 39.8996 0 39.5784 0Z" fill="black"/>
<path d="M41.67 39.11H35.56V41.4H41.67V39.11Z" fill="black"/>
<path d="M43.2496 28.499C51.8343 28.8788 59.5722 30.3376 65.4547 32.5293C68.8947 33.811 71.7658 35.3678 73.7994 37.1592C75.8309 38.9488 77.1402 41.082 77.1402 43.4805C77.1401 45.8789 75.8309 48.0122 73.7994 49.8018C71.7658 51.593 68.8945 53.149 65.4547 54.4307C58.5649 56.9976 49.1298 58.5605 38.7701 58.5605C28.4103 58.5605 18.9754 56.9976 12.0855 54.4307C8.64564 53.149 5.77442 51.593 3.74081 49.8018C1.70923 48.0122 0.400167 45.8789 0.399994 43.4805C0.399994 41.0819 1.70922 38.9488 3.74081 37.1592C5.77446 35.3678 8.64543 33.811 12.0855 32.5293C17.9587 30.3411 25.6813 28.8836 34.2496 28.501V31.0029C25.9312 31.384 18.5149 32.8019 12.9586 34.8721C9.68144 36.0931 7.1162 37.5174 5.39316 39.0352C3.66834 40.5546 2.89999 42.0601 2.89999 43.4805C2.90017 44.9008 3.66834 46.4064 5.39316 47.9258C7.11619 49.4435 9.68158 50.8669 12.9586 52.0879C19.5035 54.5264 28.6292 56.0605 38.7701 56.0605C48.911 56.0605 58.0367 54.5263 64.5816 52.0879C67.8585 50.867 70.4241 49.4434 72.1471 47.9258C73.8718 46.4065 74.6401 44.9007 74.6402 43.4805C74.6402 42.0602 73.8718 40.5545 72.1471 39.0352C70.424 37.5174 67.8587 36.0931 64.5816 34.8721C59.0162 32.7985 51.5847 31.3792 43.2496 31.001V28.499Z" fill="black"/>
<defs>
<radialGradient id="paint0_radial_3_65" cx="0" cy="0" r="1" gradientUnits="userSpaceOnUse" gradientTransform="translate(38.03 140.86) scale(26.49 26.49)">
<stop offset="0.07" stop-opacity="0.67"/>
<stop offset="0.13" stop-opacity="0.79"/>
<stop offset="0.18" stop-opacity="0.88"/>
<stop offset="0.22" stop-opacity="0.93"/>
<stop offset="0.27" stop-opacity="0.95"/>
<stop offset="0.92" stop-opacity="0"/>
</radialGradient>
</defs>
</svg>
