<svg width="78" height="157" viewBox="0 0 78 157" fill="none" xmlns="http://www.w3.org/2000/svg">
<path d="M38.56 125.73C40.1616 125.73 41.46 124.432 41.46 122.83C41.46 121.228 40.1616 119.93 38.56 119.93C36.9584 119.93 35.66 121.228 35.66 122.83C35.66 124.432 36.9584 125.73 38.56 125.73Z" fill="#0D3B66"/>
<path d="M52.89 117.69C52.72 117.21 52.15 116.96 51.63 117.15L42.57 120.4C42.05 120.59 41.77 121.13 41.94 121.62C42.11 122.11 42.68 122.35 43.2 122.16L52.26 118.91C52.78 118.72 53.06 118.18 52.89 117.69Z" fill="#0D3B66"/>
<path d="M24.16 117.67C24.33 117.19 24.9 116.94 25.42 117.13L34.66 120.44C35.18 120.63 35.46 121.17 35.29 121.66C35.12 122.15 34.55 122.39 34.03 122.2L24.79 118.89C24.27 118.7 23.99 118.16 24.16 117.67Z" fill="#0D3B66"/>
<path d="M24.65 78.88C24.82 78.4 25.39 78.15 25.91 78.34L34.63 81.47C35.15 81.66 35.43 82.2 35.26 82.69C35.09 83.18 34.52 83.42 34 83.23L25.28 80.1C24.76 79.91 24.48 79.37 24.65 78.88Z" fill="#0D3B66"/>
<path d="M52.89 98.54C52.72 98.06 52.15 97.81 51.63 98L42.91 101.13C42.39 101.32 42.11 101.86 42.28 102.35C42.45 102.84 43.02 103.08 43.54 102.89L52.26 99.76C52.78 99.57 53.06 99.03 52.89 98.54Z" fill="#0D3B66"/>
<path d="M24.04 98.54C24.21 98.06 24.78 97.81 25.3 98L34.02 101.13C34.54 101.32 34.82 101.86 34.65 102.35C34.48 102.84 33.91 103.08 33.39 102.89L24.67 99.76C24.15 99.57 23.87 99.03 24.04 98.54Z" fill="#0D3B66"/>
<path d="M52.89 78.88C52.72 78.4 52.15 78.15 51.63 78.34L42.91 81.47C42.39 81.66 42.11 82.2 42.28 82.69C42.45 83.18 43.02 83.42 43.54 83.23L52.26 80.1C52.78 79.91 53.06 79.37 52.89 78.88Z" fill="#0D3B66"/>
<path d="M21 119.71C22.6016 119.71 23.9 118.412 23.9 116.81C23.9 115.208 22.6016 113.91 21 113.91C19.3984 113.91 18.1 115.208 18.1 116.81C18.1 118.412 19.3984 119.71 21 119.71Z" fill="#0D3B66"/>
<path d="M56.11 119.71C57.7116 119.71 59.01 118.412 59.01 116.81C59.01 115.208 57.7116 113.91 56.11 113.91C54.5084 113.91 53.21 115.208 53.21 116.81C53.21 118.412 54.5084 119.71 56.11 119.71Z" fill="#0D3B66"/>
<path d="M56.11 100.28C57.7116 100.28 59.01 98.9816 59.01 97.38C59.01 95.7784 57.7116 94.48 56.11 94.48C54.5084 94.48 53.21 95.7784 53.21 97.38C53.21 98.9816 54.5084 100.28 56.11 100.28Z" fill="#0D3B66"/>
<path d="M38.46 106.61C40.0616 106.61 41.36 105.312 41.36 103.71C41.36 102.108 40.0616 100.81 38.46 100.81C36.8584 100.81 35.56 102.108 35.56 103.71C35.56 105.312 36.8584 106.61 38.46 106.61Z" fill="#0D3B66"/>
<path d="M44.36 115.05C45.9616 115.05 47.26 113.752 47.26 112.15C47.26 110.548 45.9616 109.25 44.36 109.25C42.7584 109.25 41.46 110.548 41.46 112.15C41.46 113.752 42.7584 115.05 44.36 115.05Z" fill="#0D3B66"/>
<path d="M44.36 94.75C45.9616 94.75 47.26 93.4516 47.26 91.85C47.26 90.2484 45.9616 88.95 44.36 88.95C42.7584 88.95 41.46 90.2484 41.46 91.85C41.46 93.4516 42.7584 94.75 44.36 94.75Z" fill="#0D3B66"/>
<path d="M32.42 94.75C34.0216 94.75 35.32 93.4516 35.32 91.85C35.32 90.2484 34.0216 88.95 32.42 88.95C30.8184 88.95 29.52 90.2484 29.52 91.85C29.52 93.4516 30.8184 94.75 32.42 94.75Z" fill="#0D3B66"/>
<path d="M32.68 115.05C34.2816 115.05 35.58 113.752 35.58 112.15C35.58 110.548 34.2816 109.25 32.68 109.25C31.0784 109.25 29.78 110.548 29.78 112.15C29.78 113.752 31.0784 115.05 32.68 115.05Z" fill="#0D3B66"/>
<path d="M29.15 93.66C28.98 93.18 28.41 92.93 27.89 93.12L24.73 94.25C24.21 94.44 23.93 94.98 24.1 95.47C24.27 95.96 24.84 96.2 25.36 96.01L28.52 94.88C29.04 94.69 29.32 94.15 29.15 93.66Z" fill="#0D3B66"/>
<path d="M47.52 93.5C47.69 93.02 48.26 92.77 48.78 92.96L52.35 94.24C52.87 94.43 53.15 94.97 52.98 95.46C52.81 95.95 52.24 96.19 51.72 96L48.15 94.72C47.63 94.53 47.35 93.99 47.52 93.5Z" fill="#0D3B66"/>
<path d="M35.25 72.65C35.08 72.17 34.51 71.92 33.99 72.11L25.27 75.24C24.75 75.43 24.47 75.97 24.64 76.46C24.81 76.95 25.38 77.19 25.9 77L34.62 73.87C35.14 73.68 35.42 73.14 35.25 72.65Z" fill="#0D3B66"/>
<path d="M42.29 72.65C42.46 72.17 43.03 71.92 43.55 72.11L52.27 75.24C52.79 75.43 53.07 75.97 52.9 76.46C52.73 76.95 52.16 77.19 51.64 77L42.92 73.87C42.4 73.68 42.12 73.14 42.29 72.65Z" fill="#0D3B66"/>
<path d="M56.27 80.57C57.8716 80.57 59.17 79.2716 59.17 77.67C59.17 76.0684 57.8716 74.77 56.27 74.77C54.6684 74.77 53.37 76.0684 53.37 77.67C53.37 79.2716 54.6684 80.57 56.27 80.57Z" fill="#0D3B66"/>
<path d="M21 80.57C22.6016 80.57 23.9 79.2716 23.9 77.67C23.9 76.0684 22.6016 74.77 21 74.77C19.3984 74.77 18.1 76.0684 18.1 77.67C18.1 79.2716 19.3984 80.57 21 80.57Z" fill="#0D3B66"/>
<path d="M38.77 74.29C40.3716 74.29 41.67 72.9916 41.67 71.39C41.67 69.7884 40.3716 68.49 38.77 68.49C37.1684 68.49 35.87 69.7884 35.87 71.39C35.87 72.9916 37.1684 74.29 38.77 74.29Z" fill="#0D3B66"/>
<path d="M21 100.28C22.6016 100.28 23.9 98.9816 23.9 97.38C23.9 95.7784 22.6016 94.48 21 94.48C19.3984 94.48 18.1 95.7784 18.1 97.38C18.1 98.9816 19.3984 100.28 21 100.28Z" fill="#0D3B66"/>
<path d="M38.77 86.85C40.3716 86.85 41.67 85.5516 41.67 83.95C41.67 82.3484 40.3716 81.05 38.77 81.05C37.1684 81.05 35.87 82.3484 35.87 83.95C35.87 85.5516 37.1684 86.85 38.77 86.85Z" fill="#0D3B66"/>
<path d="M47.52 113.39C47.69 112.91 48.26 112.66 48.78 112.85L52.35 114.13C52.87 114.32 53.15 114.86 52.98 115.35C52.81 115.84 52.24 116.08 51.72 115.89L48.15 114.61C47.63 114.42 47.35 113.88 47.52 113.39Z" fill="#0D3B66"/>
<path d="M29.36 112.93C29.19 112.45 28.62 112.2 28.1 112.39L24.53 113.67C24.01 113.86 23.73 114.4 23.9 114.89C24.07 115.38 24.64 115.62 25.16 115.43L28.73 114.15C29.25 113.96 29.53 113.42 29.36 112.93Z" fill="#0D3B66"/>
<path d="M38.46 107.46C37.95 107.46 37.53 107.91 37.53 108.46V118.08C37.53 118.63 37.95 119.08 38.46 119.08C38.97 119.08 39.39 118.63 39.39 118.08V108.46C39.39 107.91 38.97 107.46 38.46 107.46Z" fill="#0D3B66"/>
<path d="M38.56 88.02C38.05 88.02 37.63 88.47 37.63 89.02V98.64C37.63 99.19 38.05 99.64 38.56 99.64C39.07 99.64 39.49 99.19 39.49 98.64V89.02C39.49 88.47 39.07 88.02 38.56 88.02Z" fill="#0D3B66"/>
<path d="M38.56 75.24C38.05 75.24 37.63 75.69 37.63 76.24V79.1C37.63 79.65 38.05 80.1 38.56 80.1C39.07 80.1 39.49 79.65 39.49 79.1V76.24C39.49 75.69 39.07 75.24 38.56 75.24Z" fill="#0D3B66"/>
<path d="M56.27 101.29C55.76 101.29 55.34 101.74 55.34 102.29V111.91C55.34 112.46 55.76 112.91 56.27 112.91C56.78 112.91 57.2 112.46 57.2 111.91V102.29C57.2 101.74 56.78 101.29 56.27 101.29Z" fill="#0D3B66"/>
<path d="M21.01 101.28C20.5 101.28 20.08 101.73 20.08 102.28V111.9C20.08 112.45 20.5 112.9 21.01 112.9C21.52 112.9 21.94 112.45 21.94 111.9V102.28C21.94 101.73 21.52 101.28 21.01 101.28Z" fill="#0D3B66"/>
<path d="M21.01 81.45C20.5 81.45 20.08 81.9 20.08 82.45V92.07C20.08 92.62 20.5 93.07 21.01 93.07C21.52 93.07 21.94 92.62 21.94 92.07V82.45C21.94 81.9 21.52 81.45 21.01 81.45Z" fill="#0D3B66"/>
<path d="M56.11 81.72C55.6 81.72 55.18 82.17 55.18 82.72V92.34C55.18 92.89 55.6 93.34 56.11 93.34C56.62 93.34 57.04 92.89 57.04 92.34V82.72C57.04 82.17 56.62 81.72 56.11 81.72Z" fill="#0D3B66"/>
<path d="M38.56 57.31C38.05 57.31 37.63 57.76 37.63 58.31V65.61C37.63 66.16 38.05 66.61 38.56 66.61C39.07 66.61 39.49 66.16 39.49 65.61V58.31C39.49 57.76 39.07 57.31 38.56 57.31Z" fill="black"/>
<path d="M75.44 45.67C75.17 78.63 74.91 111.59 74.64 144.55" stroke="black" stroke-width="2.5" stroke-miterlimit="10" stroke-linecap="round"/>
<path d="M2.05 45.16C1.78 78.37 1.52 111.58 1.25 144.79" stroke="black" stroke-width="2.5" stroke-miterlimit="10" stroke-linecap="round"/>
<path d="M1.39 135.3C15.8 149.71 62.94 150.1 74.63 135.3" stroke="url(#paint0_radial_3_65)" stroke-miterlimit="10"/>
<path d="M1.39 144.55C15.8 158.96 62.94 159.35 74.63 144.55" stroke="black" stroke-width="2.5" stroke-miterlimit="10"/>
<path d="M39.5784 0H37.9616C37.6404 0 37.38 0.447715 37.38 1V39.7C37.38 40.2523 37.6404 40.7 37.9616 40.7H39.5784C39.8996 40.7 40.16 40.2523 40.16 39.7V1C40.16 0.447715 39.8996 0 39.5784 0Z" fill="black"/>
<path d="M41.67 39.11H35.56V41.4H41.67V39.11Z" fill="black"/>
<path d="M43.2496 28.499C51.8343 28.8788 59.5722 30.3376 65.4547 32.5293C68.8947 33.811 71.7658 35.3678 73.7994 37.1592C75.8309 38.9488 77.1402 41.082 77.1402 43.4805C77.1401 45.8789 75.8309 48.0122 73.7994 49.8018C71.7658 51.593 68.8945 53.149 65.4547 54.4307C58.5649 56.9976 49.1298 58.5605 38.7701 58.5605C28.4103 58.5605 18.9754 56.9976 12.0855 54.4307C8.64564 53.149 5.77442 51.593 3.74081 49.8018C1.70923 48.0122 0.400167 45.8789 0.399994 43.4805C0.399994 41.0819 1.70922 38.9488 3.74081 37.1592C5.77446 35.3678 8.64543 33.811 12.0855 32.5293C17.9587 30.3411 25.6813 28.8836 34.2496 28.501V31.0029C25.9312 31.384 18.5149 32.8019 12.9586 34.8721C9.68144 36.0931 7.1162 37.5174 5.39316 39.0352C3.66834 40.5546 2.89999 42.0601 2.89999 43.4805C2.90017 44.9008 3.66834 46.4064 5.39316 47.9258C7.11619 49.4435 9.68158 50.8669 12.9586 52.0879C19.5035 54.5264 28.6292 56.0605 38.7701 56.0605C48.911 56.0605 58.0367 54.5263 64.5816 52.0879C67.8585 50.867 70.4241 49.4434 72.1471 47.9258C73.8718 46.4065 74.6401 44.9007 74.6402 43.4805C74.6402 42.0602 73.8718 40.5545 72.1471 39.0352C70.424 37.5174 67.8587 36.0931 64.5816 34.8721C59.0162 32.7985 51.5847 31.3792 43.2496 31.001V28.499Z" fill="black"/>
<defs>
<radialGradient id="paint0_radial_3_65" cx="0" cy="0" r="1" gradientUnits="userSpaceOnUse" gradientTransform="translate(38.03 140.86) scale(26.49 26.49)">
<stop offset="0.07" stop-opacity="0.67"/>
<stop offset="0.13" stop-opacity="0.79"/>
<stop offset="0.18" stop-opacity="0.88"/>
<stop offset="0.22" stop-opacity="0.93"/>
<stop offset="0.27" stop-opacity="0.95"/>
<stop offset="0.92" stop-opacity="0"/>
</radialGradient>
</defs>
</svg>
